<?xml version="1.0" encoding="UTF-8"?>
<svg width="113px" height="105px" viewBox="0 0 113 105" version="1.1" xmlns="http://www.w3.org/2000/svg" xmlns:xlink="http://www.w3.org/1999/xlink">
    <!-- Generator: Sketch 55.1 (78136) - https://sketchapp.com -->
    <title>amritsar</title>
    <desc>Created with Sketch.</desc>
    <g id="Website" stroke="none" stroke-width="1" fill="none" fill-rule="evenodd">
        <g id="template-copy" transform="translate(-1734.000000, -246.000000)" fill="#424242" fill-rule="nonzero">
            <g id="amritsar" transform="translate(1734.000000, 246.000000)">
                <path d="M100.849587,53.5116067 L100.849587,40.1934971 C101.583698,39.6325243 102.093946,38.9190542 102.511422,38.1710905 C104.834764,34.0173508 103.07814,29.044845 98.3306161,26.3452773 C91.8587368,22.6635534 90.4974035,16.776063 90.2916909,15.6341477 L90.0194242,14.0365555 L86.5807972,14.0365555 L86.294413,15.6341477 C86.0887004,16.776063 84.7374511,22.6581071 78.2554878,26.3452773 C73.507964,29.0430296 71.7513399,34.0173508 74.074682,38.172906 C74.6414001,39.1859247 75.5267709,39.9756436 76.6481062,40.5093846 L76.6481062,52.1954086 L70.597736,52.1954086 L70.5896688,32.0366995 C73.0884717,31.5664991 74.4074524,30.1867604 75.4743343,28.2769115 C78.5075866,22.8541752 76.1902948,16.3476178 69.9664807,12.8074987 C60.7094143,7.5427062 58.7753127,3.23149334 58.4808613,1.59759221 L58.2085947,0 L54.765934,0 L54.4795498,1.59577677 C54.1850985,3.22786245 52.2509968,7.53907531 42.9939305,12.8056833 C36.7701163,16.3458024 34.4528246,22.8523598 37.4860768,28.2750961 C38.4460689,29.9943231 40.1603404,31.1961482 42.354608,31.7916144 L42.3626752,52.1954086 L36.312305,52.1954086 L36.312305,40.1934971 C37.0464166,39.6325243 37.5566645,38.9190542 37.97414,38.1710905 C40.2974822,34.0173508 38.540858,29.044845 33.7933342,26.3452773 C27.3214549,22.6635534 25.9601216,16.776063 25.754409,15.6341477 L25.4821424,14.0365555 L22.0435153,14.0365555 L21.7571311,15.6341477 C21.5514186,16.776063 20.2001692,22.6581071 13.718206,26.3452773 C8.97068218,29.0430296 7.21405804,34.0173508 9.53740019,38.172906 C10.1041182,39.1859247 10.989489,39.9756436 12.1108243,40.5093846 L12.1108243,53.5116067 C5.01979045,56.1367412 0.0100839503,62.4145524 0.0100839503,69.732614 L0.0100839503,104.843334 L42.3626752,104.843334 L50.4298354,104.843334 L64.5473658,104.843334 L72.614526,104.843334 L112.950327,104.843334 L112.950327,69.732614 C112.950327,62.4163678 107.940621,56.1367412 100.849587,53.5116067 Z M80.4074028,29.4170114 C84.4409829,27.1204726 86.8591142,24.11591 88.293052,21.5270844 C89.7269897,24.11591 92.145121,27.122288 96.1766843,29.4170114 L96.1766843,29.4170114 C99.1272481,31.0944832 100.276818,34.0899686 98.907418,36.5390049 C98.6512857,36.9964972 98.4637242,37.2561059 98.2378437,37.419496 L98.0220472,37.504822 C97.812301,37.5883325 97.5319672,37.671843 97.0297865,37.671843 L80.4779905,37.671843 C80.0726157,37.671843 79.6652241,37.6191951 79.1932952,37.5011911 L78.8564913,37.4176806 C78.3764952,37.252475 77.9287678,36.9910508 77.6766691,36.5408203 C76.3072686,34.0917841 77.456839,31.0944832 80.4074028,29.4170114 Z M96.8160067,41.3027344 L96.8160067,52.1954086 L93.4661185,52.1954086 L80.6816863,52.1954086 L80.6816863,41.3027344 L96.8160067,41.3027344 Z M41.0880639,26.6448258 C39.0087533,22.9249776 40.7149577,18.397256 45.1478622,15.8756019 C51.3031055,12.3736072 54.6650945,7.65344839 56.4781888,3.90092213 C58.2892663,7.6461866 61.6532721,12.3717918 67.8105321,15.8756019 C72.2434367,18.397256 73.9496411,22.9249776 71.8703305,26.6448258 C71.2068066,27.8303119 70.7469785,28.344083 69.6881637,28.5183658 L68.4780896,28.5528592 C68.0061608,28.5673828 61.0421847,28.5873527 56.4741552,28.5946145 L56.4640713,28.5946145 C52.384105,28.5873527 46.4023057,28.5710137 44.9159314,28.5619365 C43.6070346,28.462087 41.8766288,28.0536117 41.0880639,26.6448258 Z M66.5641559,52.1954086 L46.3962553,52.1954086 L46.3881881,32.2255059 L56.4620545,32.2255059 L56.4862559,32.2255059 L66.5560887,32.2255059 L66.5641559,52.1954086 Z M15.870121,29.4170114 C19.9037011,27.1204726 22.3218324,24.11591 23.7557701,21.5270844 C25.1897078,24.11591 27.6078391,27.122288 31.6394024,29.4170114 L31.6394024,29.4170114 C34.5899663,31.0944832 35.7395366,34.0899686 34.3701362,36.5390049 C34.1140038,36.9964972 33.9264424,37.2561059 33.7005619,37.419496 L33.4847653,37.504822 C33.2750192,37.5883325 32.9946854,37.671843 32.4925046,37.671843 L15.9447422,37.671843 C15.5393674,37.671843 15.1319758,37.6191951 14.6600469,37.5011911 L14.3192094,37.4176806 C13.8392134,37.252475 13.391486,36.9910508 13.1393872,36.5408203 C11.7699868,34.0917841 12.9195571,31.0944832 15.870121,29.4170114 Z M32.2787249,41.3027344 L32.2787249,52.1954086 L19.4942927,52.1954086 L16.1444044,52.1954086 L16.1444044,41.3027344 L32.2787249,41.3027344 Z M60.5137857,101.212442 L54.4634155,101.212442 L54.4634155,80.3348169 C54.4634155,78.8842757 55.8771854,77.6116483 57.4886006,77.6116483 C59.1000159,77.6116483 60.5137857,78.8842757 60.5137857,80.3348169 L60.5137857,101.212442 Z M68.5809459,101.212442 L64.5473658,101.212442 L64.5473658,80.3348169 C64.5473658,76.8909164 61.3144513,73.9807569 57.4886006,73.9807569 C53.6627499,73.9807569 50.4298354,76.8909164 50.4298354,80.3348169 L50.4298354,101.212442 L46.3962553,101.212442 L46.3962553,76.7039255 C46.3962553,71.1994941 51.3716764,66.7189741 57.4886006,66.7189741 C63.6055249,66.7189741 68.5809459,71.1994941 68.5809459,76.7039255 L68.5809459,101.212442 Z M108.916747,101.212442 L72.614526,101.212442 L72.614526,76.7039255 C72.614526,69.1952421 65.8300443,63.0880827 57.4886006,63.0880827 C49.1471569,63.0880827 42.3626752,69.1952421 42.3626752,76.7039255 L42.3626752,101.212442 L4.04366407,101.212442 L4.04366407,69.732614 C4.04366407,62.0641714 10.9753715,55.8262999 19.4942927,55.8262999 L36.312305,55.8262999 L42.3626752,55.8262999 L70.597736,55.8262999 L76.6481062,55.8262999 L93.4661185,55.8262999 C101.98504,55.8262999 108.916747,62.0659868 108.916747,69.732614 L108.916747,101.212442 Z" id="Shape"></path>
                <path d="M52.4466255,35.8563973 C51.3333574,35.8563973 50.4298354,36.6679015 50.4298354,37.671843 L50.4298354,48.5645172 C50.4298354,49.5684586 51.3333574,50.3799629 52.4466255,50.3799629 C53.5598936,50.3799629 54.4634155,49.5684586 54.4634155,48.5645172 L54.4634155,37.671843 C54.4634155,36.669717 53.5598936,35.8563973 52.4466255,35.8563973 Z" id="Shape"></path>
                <path d="M60.5137857,50.3799629 C61.6270538,50.3799629 62.5305758,49.5684586 62.5305758,48.5645172 L62.5305758,37.671843 C62.5305758,36.6679015 61.6270538,35.8563973 60.5137857,35.8563973 C59.4005176,35.8563973 58.4969956,36.6679015 58.4969956,37.671843 L58.4969956,48.5645172 C58.4969956,49.5684586 59.4005176,50.3799629 60.5137857,50.3799629 Z" id="Shape"></path>
                <path d="M88.7488465,50.3799629 C89.8621146,50.3799629 90.7656366,49.5684586 90.7656366,48.5645172 L90.7656366,44.9336258 C90.7656366,43.9296843 89.8621146,43.1181801 88.7488465,43.1181801 C87.6355784,43.1181801 86.7320565,43.9296843 86.7320565,44.9336258 L86.7320565,48.5645172 C86.7320565,49.5684586 87.6355784,50.3799629 88.7488465,50.3799629 Z" id="Shape"></path>
                <path d="M24.2115646,50.3799629 C25.3248328,50.3799629 26.2283547,49.5684586 26.2283547,48.5645172 L26.2283547,44.9336258 C26.2283547,43.9296843 25.3248328,43.1181801 24.2115646,43.1181801 C23.0982965,43.1181801 22.1947746,43.9296843 22.1947746,44.9336258 L22.1947746,48.5645172 C22.1947746,49.5684586 23.0982965,50.3799629 24.2115646,50.3799629 Z" id="Shape"></path>
                <path d="M22.1947746,63.0880827 C15.5212163,63.0880827 10.0940342,67.9734471 10.0940342,73.9807569 L10.0940342,95.7661053 L34.2955149,95.7661053 L34.2955149,73.9807569 C34.2955149,67.9752626 28.8683329,63.0880827 22.1947746,63.0880827 Z M20.1779845,92.1352139 L14.1276144,92.1352139 L14.1276144,86.6888768 L20.1779845,86.6888768 L20.1779845,92.1352139 Z M20.1779845,83.0579854 L14.1276144,83.0579854 L14.1276144,77.6116483 L20.1779845,77.6116483 L20.1779845,83.0579854 Z M20.1779845,73.9807569 L14.1276144,73.9807569 C14.1276144,70.6058434 16.7091056,67.7882716 20.1779845,66.9767674 L20.1779845,73.9807569 Z M30.2619348,92.1352139 L24.2115646,92.1352139 L24.2115646,86.6888768 L30.2619348,86.6888768 L30.2619348,92.1352139 Z M30.2619348,83.0579854 L24.2115646,83.0579854 L24.2115646,77.6116483 L30.2619348,77.6116483 L30.2619348,83.0579854 Z M24.2115646,73.9807569 L24.2115646,66.9767674 C27.6804435,67.7882716 30.2619348,70.6058434 30.2619348,73.9807569 L24.2115646,73.9807569 Z" id="Shape"></path>
                <path d="M90.7656366,63.0880827 C84.0920783,63.0880827 78.6648962,67.9734471 78.6648962,73.9807569 L78.6648962,95.7661053 L102.866377,95.7661053 L102.866377,73.9807569 C102.866377,67.9752626 97.4391949,63.0880827 90.7656366,63.0880827 Z M88.7488465,92.1352139 L82.6984763,92.1352139 L82.6984763,86.6888768 L88.7488465,86.6888768 L88.7488465,92.1352139 Z M88.7488465,83.0579854 L82.6984763,83.0579854 L82.6984763,77.6116483 L88.7488465,77.6116483 L88.7488465,83.0579854 Z M88.7488465,73.9807569 L82.6984763,73.9807569 C82.6984763,70.6058434 85.2799676,67.7882716 88.7488465,66.9767674 L88.7488465,73.9807569 Z M98.8327968,92.1352139 L92.7824266,92.1352139 L92.7824266,86.6888768 L98.8327968,86.6888768 L98.8327968,92.1352139 Z M98.8327968,83.0579854 L92.7824266,83.0579854 L92.7824266,77.6116483 L98.8327968,77.6116483 L98.8327968,83.0579854 Z M92.7824266,73.9807569 L92.7824266,66.9767674 C96.2513055,67.7882716 98.8327968,70.6058434 98.8327968,73.9807569 L92.7824266,73.9807569 Z" id="Shape"></path>
            </g>
        </g>
    </g>
</svg>