<?xml version="1.0" encoding="UTF-8"?>
<svg width="45px" height="105px" viewBox="0 0 45 105" version="1.1" xmlns="http://www.w3.org/2000/svg" xmlns:xlink="http://www.w3.org/1999/xlink">
    <!-- Generator: Sketch 55.1 (78136) - https://sketchapp.com -->
    <title>delhi</title>
    <desc>Created with Sketch.</desc>
    <g id="Website" stroke="none" stroke-width="1" fill="none" fill-rule="evenodd">
        <g id="template-copy" transform="translate(-759.000000, -246.000000)" fill="#424242" fill-rule="nonzero">
            <g id="delhi" transform="translate(759.000000, 246.000000)">
                <path d="M44.879395,102.940788 L40.7722931,88.6443508 C42.0925843,87.8893706 43.0085871,86.262739 43.0085871,84.3814399 C43.0085871,82.2604419 41.8443519,80.4625966 40.2488871,79.8734988 L35.0205882,32.4674283 C36.4698247,31.7805235 37.4993536,30.0728986 37.4993536,28.078414 C37.4993536,25.9295296 36.3039411,24.1130252 34.6759434,23.5485329 L33.5232303,16.6206364 C34.9321396,15.9105613 35.9252385,14.2275419 35.9252385,12.2683253 C35.9252385,10.172753 34.7886223,8.39295181 33.2226404,7.78232417 C32.6955067,3.38736353 29.5625261,0 25.787022,0 L19.2809618,0 C15.5054577,0 12.3724772,3.38736353 11.8455129,7.78232417 C10.279531,8.39295181 9.14291482,10.172753 9.14291482,12.2683253 C9.14291482,14.2273369 10.1360137,15.9105613 11.544923,16.6206364 L10.3922099,23.5485329 C8.7642122,24.1130252 7.56879968,25.9293246 7.56879968,28.078414 C7.56879968,30.0728986 8.59832859,31.7805235 10.0477345,32.4674283 L4.81943561,79.8734988 C3.22380136,80.4628017 2.05956615,82.2604419 2.05956615,84.3814399 C2.05956615,86.262739 2.97556899,87.8891656 4.29569074,88.6443508 C4.29569074,88.6443508 0.203499707,102.889117 0.188588821,102.940583 C0.0520186595,103.416496 0.137586813,103.931572 0.367011129,104.325465 C0.593046607,104.713413 0.958532759,104.983664 1.3890846,104.983664 C1.3890846,104.983664 43.5896034,104.983664 43.6788993,104.983664 C44.5398335,104.983664 45.1621935,103.92501 44.879395,102.940788 Z M19.3342867,3.13655761 L25.8403469,3.13655761 C28.143401,3.13655761 30.0858828,5.04082184 30.6487688,7.61661243 L14.5256954,7.61661243 C15.0887508,5.04082184 17.0310632,3.13655761 19.3342867,3.13655761 Z M13.1671103,10.6045519 L32.1608682,10.6045519 C32.9067514,10.6045519 33.5135228,11.3388224 33.5135228,12.2414359 C33.5135228,13.1440493 32.9067514,13.8783198 32.1608682,13.8783198 L13.1671103,13.8783198 C12.4213966,13.8783198 11.8146252,13.1440493 11.8146252,12.2414359 C11.8146252,11.3388224 12.4213966,10.6045519 13.1671103,10.6045519 Z M32.0383617,23.4119612 L13.0007184,23.4119612 L14.063119,17.027027 L30.9759611,17.027027 L32.0383617,23.4119612 Z M11.4723526,26.4366999 C11.4724655,26.4366999 18.8531847,26.4366999 33.6145101,26.4366999 C34.3605628,26.4369049 34.9669953,27.1711754 34.9669953,28.0733788 C34.9669953,28.9759922 34.3602239,29.7102627 33.6143407,29.7102627 L11.4728609,29.7102627 C10.7269777,29.7102627 10.1202063,28.9759922 10.1202063,28.0733788 C10.1202063,27.1711754 10.7268083,26.4369049 11.4723526,26.4366999 Z M28.3801113,32.7098151 L11.4757414,43.1684025 L12.6291324,32.7098151 L28.3801113,32.7098151 Z M9.09626899,64.7375266 C9.09626899,64.7375266 24.5095503,55.2012371 24.5256473,55.1911898 C25.1415685,54.8102139 25.3930203,53.865566 25.0787056,53.1218634 C24.7593076,52.3656529 23.9934303,52.0660804 23.3686981,52.4525925 L9.50496282,61.030291 L11.0575588,46.9503823 L32.6261556,33.6059744 L33.9805046,45.8870126 L28.4519547,49.3077987 C27.827053,49.6945158 27.5794984,50.6209146 27.8988964,51.3771251 C28.2184638,52.1333355 28.9843411,52.4329081 29.6089039,52.0463959 L34.3371798,49.1210015 L35.6601821,61.1219466 L20.1664158,70.7078573 C19.5415142,71.0945745 19.2939596,72.0209733 19.6133575,72.7771838 C19.9219112,73.5075584 20.7181186,73.8149227 21.3233651,73.4464546 L36.0168572,64.3559356 L37.7055151,79.6628408 L11.2761389,79.6628408 C11.2761389,79.6628408 16.8438299,76.2178593 16.8465409,76.2160139 C17.4599206,75.8364733 17.7130667,74.8881346 17.3995993,74.1464824 C17.0802013,73.3902719 16.3146629,73.0909045 15.6895917,73.4772115 L7.578578,78.4953076 L9.09626899,64.7375266 Z M6.04885668,82.745377 C6.05122886,82.7455137 17.1050528,82.7455137 39.2103285,82.745377 C39.95672,82.745377 40.5634914,83.4796475 40.5634914,84.3822609 C40.5634914,85.2848744 39.95672,86.0191449 39.2108368,86.0191449 L6.0505511,86.0191449 C5.30483735,86.0191449 4.69806591,85.2848744 4.69806591,84.3822609 C4.69806591,83.4800576 5.3038207,82.7461971 6.04885668,82.745377 Z M3.17308892,101.832445 L6.85438338,89.0184922 L38.2075714,89.0184922 L41.8886964,101.832445 L3.17308892,101.832445 Z" id="Shape"></path>
            </g>
        </g>
    </g>
</svg>