<?xml version="1.0" encoding="UTF-8"?>
<svg width="42px" height="105px" viewBox="0 0 42 105" version="1.1" xmlns="http://www.w3.org/2000/svg" xmlns:xlink="http://www.w3.org/1999/xlink">
    <!-- Generator: Sketch 55.1 (78136) - https://sketchapp.com -->
    <title>ludhiana</title>
    <desc>Created with Sketch.</desc>
    <g id="Website" stroke="none" stroke-width="1" fill="none" fill-rule="evenodd">
        <g id="template-copy" transform="translate(-1527.000000, -246.000000)" fill="#424242" fill-rule="nonzero">
            <g id="ludhiana" transform="translate(1527.000000, 246.000000)">
                <path d="M40.7142889,67.6835742 C41.4245736,67.6835742 42,66.9325781 42,66.0060352 L42,37.8545508 C42,36.9280078 41.4245736,36.1770117 40.7142889,36.1770117 L38.1035724,36.1770117 L38.1035724,26.4981445 C38.1035724,25.5716016 37.528146,24.8206055 36.8178613,24.8206055 L33.3906083,24.8206055 L33.3906083,16.8836719 C33.3906083,15.9571289 32.8151818,15.2061328 32.1048972,15.2061328 L28.7177244,15.2061328 L22.1024422,0.814775391 C21.8702912,0.309257812 21.4517278,0 21,0 C20.5482722,0 20.1297088,0.309257812 19.8974006,0.814775391 L13.2821185,15.2063379 L9.8951028,15.2063379 C9.18481816,15.2063379 8.60939172,15.957334 8.60939172,16.883877 L8.60939172,24.8206055 L5.18213866,24.8206055 C4.47185402,24.8206055 3.89642758,25.5716016 3.89642758,26.4981445 L3.89642758,36.1770117 L1.28571108,36.1770117 C0.575426437,36.1770117 0,36.9280078 0,37.8545508 L0,89.2992187 C0,90.2257617 0.575426437,90.9767578 1.28571108,90.9767578 L4.40678258,90.9767578 L4.40678258,103.322461 C4.40678258,104.249004 4.98220902,105 5.69249366,105 C6.4027783,105 6.97820473,104.249004 6.97820473,103.322461 L6.97820473,90.9767578 L9.94288473,90.9767578 L9.94288473,103.322461 C9.94288473,104.249004 10.5183112,105 11.2285958,105 C11.9388804,105 12.5143069,104.249004 12.5143069,103.322461 L12.5143069,90.9767578 L16.2911225,90.9767578 L16.2911225,94.4124316 C16.2911225,95.3389746 16.8665489,96.0899707 17.5768335,96.0899707 C18.2871182,96.0899707 18.8625446,95.3389746 18.8625446,94.4124316 L18.8625446,90.9767578 L23.1376126,90.9767578 L23.1376126,103.322461 C23.1376126,104.249004 23.713039,105 24.4233236,105 C25.1336083,105 25.7090347,104.249004 25.7090347,103.322461 L25.7090347,90.9767578 L29.4856931,90.9767578 L29.4856931,103.322461 C29.4856931,104.249004 30.0611196,105 30.7714042,105 C31.4816888,105 32.0571153,104.249004 32.0571153,103.322461 L32.0571153,90.9767578 L35.0217953,90.9767578 L35.0217953,103.322461 C35.0217953,104.249004 35.5972217,105 36.3075063,105 C37.017791,105 37.5932174,104.249004 37.5932174,103.322461 L37.5932174,90.9767578 L40.7142889,90.9767578 C41.4245736,90.9767578 42,90.2257617 42,89.2992187 L42,71.3741602 C42,70.4476172 41.4245736,69.6966211 40.7142889,69.6966211 C40.0040043,69.6966211 39.4285778,70.4476172 39.4285778,71.3741602 L39.4285778,87.6216797 L2.57142216,87.6216797 L2.57142216,39.5320898 L39.4284207,39.5320898 L39.4284207,66.0058301 C39.4285778,66.932373 40.0040043,67.6835742 40.7142889,67.6835742 Z M21,4.93910156 L25.7192512,15.2061328 L16.2804344,15.2061328 L21,4.93910156 Z M35.5321503,36.1768066 L6.46784974,36.1768066 L6.46784974,28.1756836 L24.5779862,28.1756836 C25.2882708,28.1756836 25.8636973,27.4246875 25.8636973,26.4981445 C25.8636973,25.5716016 25.2882708,24.8206055 24.5779862,24.8206055 L11.1808139,24.8206055 L11.1808139,18.5612109 L30.8190289,18.5612109 L30.8190289,24.8204004 L28.5209383,24.8204004 C27.8106536,24.8204004 27.2352272,25.5713965 27.2352272,26.4979395 C27.2352272,27.4244824 27.8106536,28.1754785 28.5209383,28.1754785 L35.5321503,28.1754785 L35.5321503,36.1768066 L35.5321503,36.1768066 Z" id="Shape"></path>
                <path d="M20.9997651,47.7272727 C16.8041283,47.7272727 12.8668724,49.2332777 9.9134999,51.9682815 C9.41568594,52.4293357 9.41944421,53.1734303 9.9221126,53.6303179 C10.4243112,54.0872055 11.2353142,54.0837573 11.7335979,53.6227031 C14.2019973,51.3366847 17.4929876,50.0778013 20.9999217,50.0778013 C28.1921511,50.0778013 34.0436183,55.4465179 34.0436183,62.0455264 C34.0436183,68.6445349 28.1921511,74.0131078 20.9999217,74.0131078 C13.8076923,74.0131078 7.95622507,68.6445349 7.95622507,62.0455264 C7.95622507,59.9445618 8.557548,57.8785104 9.69520714,56.0707872 C10.0489542,55.5087293 9.83896091,54.7899216 9.22636317,54.465359 C8.61392203,54.140509 7.83047967,54.3333213 7.47657607,54.8955229 C6.11436039,57.059992 5.39449541,59.532501 5.39449541,62.0455264 C5.39449541,69.9406302 12.3950532,76.3636364 21.0000783,76.3636364 C29.6051034,76.3636364 36.6055046,69.9407738 36.6055046,62.0456701 C36.6055046,54.1504226 29.6047902,47.7272727 20.9997651,47.7272727 Z" id="Shape"></path>
                <path d="M17.5321101,97.9292929 C16.7870696,97.9292929 16.1834862,98.6606881 16.1834862,99.5630484 L16.1834862,103.012709 C16.1834862,103.915069 16.7870696,104.646465 17.5321101,104.646465 C18.2771506,104.646465 18.8807339,103.915069 18.8807339,103.012709 L18.8807339,99.5630484 C18.8807339,98.6606881 18.2769857,97.9292929 17.5321101,97.9292929 Z" id="Shape"></path>
                <path d="M21.0601123,52.3232323 C20.3482806,52.3232323 19.7716008,52.8554505 19.7716008,53.5120758 L19.7716008,60.9051414 L17.0866767,60.9051414 C16.3748449,60.9051414 15.7981651,61.4373596 15.7981651,62.0939848 C15.7981651,62.7506101 16.3748449,63.2828283 17.0866767,63.2828283 L21.0601123,63.2828283 C21.7719441,63.2828283 22.3486239,62.7506101 22.3486239,62.0939848 L22.3486239,53.5120758 C22.3486239,52.8555958 21.7719441,52.3232323 21.0601123,52.3232323 Z" id="Shape"></path>
                <path d="M35.2568807,46.3131313 C33.4509401,46.3131313 31.9816514,47.6612161 31.9816514,49.3181818 C31.9816514,50.9751476 33.4509401,52.3232323 35.2568807,52.3232323 C37.0628214,52.3232323 38.5321101,50.9751476 38.5321101,49.3181818 C38.5321101,47.6612161 37.0628214,46.3131313 35.2568807,46.3131313 Z M35.2568807,49.9191919 C34.8958848,49.9191919 34.6018349,49.6496925 34.6018349,49.3181818 C34.6018349,48.9866711 34.8958848,48.7171717 35.2568807,48.7171717 C35.6178767,48.7171717 35.9119266,48.9868181 35.9119266,49.3181818 C35.9119266,49.6495456 35.6178767,49.9191919 35.2568807,49.9191919 Z" id="Shape"></path>
                <path d="M35.2568807,72.1212121 C33.4509401,72.1212121 31.9816514,73.4692969 31.9816514,75.1262626 C31.9816514,76.7832284 33.4509401,78.1313131 35.2568807,78.1313131 C37.0628214,78.1313131 38.5321101,76.7832284 38.5321101,75.1262626 C38.5321101,73.4692969 37.0628214,72.1212121 35.2568807,72.1212121 Z M35.2568807,75.7272727 C34.8958848,75.7272727 34.6018349,75.4576264 34.6018349,75.1262626 C34.6018349,74.7948989 34.8957246,74.5252525 35.2568807,74.5252525 C35.6178767,74.5252525 35.9119266,74.7947519 35.9119266,75.1262626 C35.9119266,75.4577733 35.6178767,75.7272727 35.2568807,75.7272727 Z" id="Shape"></path>
                <path d="M6.74311927,46.3131313 C4.93717862,46.3131313 3.46788991,47.6612161 3.46788991,49.3181818 C3.46788991,50.9751476 4.93717862,52.3232323 6.74311927,52.3232323 C8.54905991,52.3232323 10.0183486,50.9751476 10.0183486,49.3181818 C10.0183486,47.6612161 8.54905991,46.3131313 6.74311927,46.3131313 Z M6.74311927,49.9191919 C6.38212333,49.9191919 6.08807339,49.6496925 6.08807339,49.3181818 C6.08807339,48.9866711 6.38196317,48.7171717 6.74311927,48.7171717 C7.10411521,48.7171717 7.39816514,48.9868181 7.39816514,49.3181818 C7.39816514,49.6495456 7.10411521,49.9191919 6.74311927,49.9191919 Z" id="Shape"></path>
                <path d="M6.74311927,72.1212121 C4.93717862,72.1212121 3.46788991,73.4692969 3.46788991,75.1262626 C3.46788991,76.7832284 4.93717862,78.1313131 6.74311927,78.1313131 C8.54905991,78.1313131 10.0183486,76.7832284 10.0183486,75.1262626 C10.0183486,73.4692969 8.54905991,72.1212121 6.74311927,72.1212121 Z M6.74311927,75.7272727 C6.38212333,75.7272727 6.08807339,75.4576264 6.08807339,75.1262626 C6.08807339,74.7948989 6.38196317,74.5252525 6.74311927,74.5252525 C7.10411521,74.5252525 7.39816514,74.7947519 7.39816514,75.1262626 C7.39816514,75.4577733 7.10411521,75.7272727 6.74311927,75.7272727 Z" id="Shape"></path>
            </g>
        </g>
    </g>
</svg>