<?xml version="1.0" encoding="UTF-8"?>
<svg width="118px" height="105px" viewBox="0 0 118 105" version="1.1" xmlns="http://www.w3.org/2000/svg" xmlns:xlink="http://www.w3.org/1999/xlink">
    <!-- Generator: Sketch 55.1 (78136) - https://sketchapp.com -->
    <title>mumbai</title>
    <desc>Created with Sketch.</desc>
    <g id="Website" stroke="none" stroke-width="1" fill="none" fill-rule="evenodd">
        <g id="template-copy" transform="translate(-965.000000, -246.000000)" fill="#424242" fill-rule="nonzero">
            <g id="mumbai" transform="translate(965.000000, 246.000000)">
                <path d="M102.641753,27.0618557 L98.8402062,27.0618557 L98.8402062,20.2963918 L93.1376838,20.2963918 L93.1376838,6.76546392 L74.7990241,6.76546392 L70.0469897,3.38273196 L70.3284055,3.38273196 L70.3284055,0 L47.5191271,0 L47.5191271,3.38273196 L47.800543,3.38273196 L43.0485086,6.76546392 L24.7102543,6.76546392 L24.7102543,20.2963918 L19.007732,20.2963918 L19.007732,27.0618557 L15.2061856,27.0618557 L15.2061856,33.8273196 L5.70252234,33.8273196 L5.70252234,37.2100515 L8.71699656,37.2100515 L15.2061856,42.9843299 L15.2061856,60.8891753 L11.4046392,60.8891753 L11.4046392,64.2719072 L15.2061856,64.2719072 L15.2061856,74.4201031 L11.4046392,74.4201031 L11.4046392,77.8028351 L15.2061856,77.8028351 L15.2061856,94.7164948 L11.4046392,94.7164948 L11.4046392,98.0992268 L15.2061856,98.0992268 L15.2061856,101.481959 L0,101.481959 L0,104.864691 L53.2216495,104.864691 L53.2216495,101.481959 L49.4201031,101.481959 L49.4201031,64.2719072 L49.4201031,62.5803608 C49.4201031,57.9174227 53.683512,54.1233505 58.9241718,54.1233505 C64.1648316,54.1233505 68.4282405,57.9170619 68.4282405,62.5803608 L68.4282405,64.2719072 L68.4282405,101.481959 L64.6266942,101.481959 L64.6266942,104.864691 L110.245251,104.864691 L110.245251,101.481959 L102.642158,101.481959 L102.642158,98.0992268 L106.443704,98.0992268 L106.443704,94.7164948 L102.642158,94.7164948 L102.642158,77.8028351 L106.443704,77.8028351 L106.443704,74.4201031 L102.642158,74.4201031 L102.642158,64.2719072 L106.443704,64.2719072 L106.443704,60.8891753 L102.642158,60.8891753 L102.642158,42.9843299 L109.131347,37.2100515 L112.145821,37.2100515 L112.145821,33.8273196 L102.641753,33.8273196 L102.641753,27.0618557 Z M53.8907216,3.38273196 L63.959244,3.38273196 L68.7112784,6.76546392 L49.1390928,6.76546392 L53.8907216,3.38273196 Z M28.5118007,10.1481959 L38.0154639,10.1481959 L38.0158694,10.1481959 L79.8324742,10.1481959 L79.8328797,10.1481959 L89.336543,10.1481959 L89.336543,20.2963918 L79.8405842,20.2963918 C82.9811684,20.2924227 85.5354021,18.0177835 85.5354021,15.2224742 C85.5354021,12.4246392 82.9771134,10.1481959 79.8328797,10.1481959 C76.688646,10.1481959 74.1303574,12.4246392 74.1303574,15.2224742 C74.1303574,18.0174227 76.6845911,20.2924227 79.8251753,20.2963918 L38.0235739,20.2963918 C41.1641581,20.2924227 43.7183918,18.0177835 43.7183918,15.2224742 C43.7183918,12.4246392 41.1601031,10.1481959 38.0158694,10.1481959 C34.8716357,10.1481959 32.3133471,12.4246392 32.3133471,15.2224742 C32.3133471,18.0174227 34.8675808,20.2924227 38.0081649,20.2963918 L28.5118007,20.2963918 L28.5118007,10.1481959 Z M77.9314983,15.2224742 C77.9314983,14.2886598 78.7834502,13.5309278 79.8324742,13.5309278 C80.8814983,13.5309278 81.7334502,14.2886598 81.7334502,15.2224742 C81.7334502,16.1562887 80.8819038,16.9140206 79.8324742,16.9140206 C78.7830447,16.9140206 77.9314983,16.1562887 77.9314983,15.2224742 Z M36.114488,15.2224742 C36.114488,14.2886598 36.9660344,13.5309278 38.0154639,13.5309278 C39.0648935,13.5309278 39.9164399,14.2886598 39.9164399,15.2224742 C39.9164399,16.1562887 39.0648935,16.9140206 38.0154639,16.9140206 C36.9660344,16.9140206 36.114488,16.1562887 36.114488,15.2224742 Z M22.8092784,23.6791237 L24.7102543,23.6791237 L93.1380893,23.6791237 L95.0390653,23.6791237 L95.0390653,27.0618557 L22.8092784,27.0618557 L22.8092784,23.6791237 Z M19.007732,30.4445876 L98.8402062,30.4445876 L98.8402062,33.8273196 L19.007732,33.8273196 L19.007732,30.4445876 Z M38.0154639,101.481959 L19.007732,101.481959 L19.007732,98.0992268 L38.0154639,98.0992268 L38.0154639,101.481959 Z M38.0154639,94.7164948 L19.007732,94.7164948 L19.007732,77.8028351 L38.0154639,77.8028351 L38.0154639,94.7164948 Z M38.0154639,74.4201031 L19.007732,74.4201031 L19.007732,64.2719072 L38.0154639,64.2719072 L38.0154639,74.4201031 Z M38.0154639,60.8891753 L19.007732,60.8891753 L19.007732,43.9755155 L38.0154639,43.9755155 L38.0154639,60.8891753 Z M45.6185567,101.481959 L41.8170103,101.481959 L41.8170103,64.2719072 L45.6185567,64.2719072 L45.6185567,101.481959 Z M57.0231959,50.8762887 C51.208756,51.6221134 46.6087835,55.7153093 45.7706186,60.8891753 L41.8170103,60.8891753 L41.8170103,43.9755155 L57.0231959,43.9755155 L57.0231959,50.8762887 Z M76.0309278,101.481959 L72.2293814,101.481959 L72.2293814,64.2719072 L76.0309278,64.2719072 L76.0309278,101.481959 Z M76.0309278,60.8891753 L72.0773196,60.8891753 C71.2391546,55.7153093 66.6391821,51.6221134 60.8247423,50.8762887 L60.8247423,43.9755155 L76.0309278,43.9755155 L76.0309278,60.8891753 Z M98.8402062,101.481959 L79.8324742,101.481959 L79.8324742,98.0992268 L98.8402062,98.0992268 L98.8402062,101.481959 Z M98.8402062,94.7164948 L79.8324742,94.7164948 L79.8324742,77.8028351 L98.8402062,77.8028351 L98.8402062,94.7164948 Z M98.8402062,74.4201031 L79.8324742,74.4201031 L79.8324742,64.2719072 L98.8402062,64.2719072 L98.8402062,74.4201031 Z M98.8402062,60.8891753 L79.8324742,60.8891753 L79.8324742,43.9755155 L98.8402062,43.9755155 L98.8402062,60.8891753 Z M103.755656,37.2100515 L99.95411,40.5927835 L17.8938282,40.5927835 L14.0922818,37.2100515 L103.755656,37.2100515 Z" id="Shape"></path>
                <path d="M28.5118007,57.5068041 C31.6560344,57.5068041 34.214323,55.2303608 34.214323,52.4325258 C34.214323,49.6346907 31.6556289,47.3582474 28.5118007,47.3582474 C25.3679725,47.3582474 22.8092784,49.6346907 22.8092784,52.4325258 C22.8092784,55.2303608 25.367567,57.5068041 28.5118007,57.5068041 Z M28.5118007,50.7406186 C29.5612302,50.7406186 30.4127766,51.4983505 30.4127766,52.4321649 C30.4123711,53.3659794 29.5608247,54.1237113 28.5118007,54.1237113 C27.4623711,54.1237113 26.6108247,53.3659794 26.6108247,52.4321649 C26.6108247,51.4983505 27.4623711,50.7406186 28.5118007,50.7406186 Z" id="Shape"></path>
                <path d="M89.336543,57.5068041 C92.4807766,57.5068041 95.0390653,55.2303608 95.0390653,52.4325258 C95.0390653,49.6346907 92.4803711,47.3582474 89.336543,47.3582474 C86.1927148,47.3582474 83.6340206,49.6346907 83.6340206,52.4325258 C83.6340206,55.2303608 86.1923093,57.5068041 89.336543,57.5068041 Z M89.336543,50.7406186 C90.3859725,50.7406186 91.2375189,51.4983505 91.2375189,52.4321649 C91.2371134,53.3659794 90.385567,54.1237113 89.336543,54.1237113 C88.2875189,54.1237113 87.435567,53.3659794 87.435567,52.4321649 C87.435567,51.4983505 88.2871134,50.7406186 89.336543,50.7406186 Z" id="Shape"></path>
                <rect id="Rectangle-path" x="47.5195326" y="13.5309278" width="22.8092784" height="3.38273196"></rect>
                <rect id="Rectangle-path" x="22.8092784" y="67.6546392" width="11.4046392" height="3.38273196"></rect>
                <rect id="Rectangle-path" x="83.6340206" y="67.6546392" width="11.4046392" height="3.38273196"></rect>
                <polygon id="Rectangle-path" points="22.8092784 87.9510309 26.6108247 87.9510309 26.6108247 91.3337629 22.8092784 91.3337629"></polygon>
                <polygon id="Rectangle-path" points="22.8092784 81.185567 26.6108247 81.185567 26.6108247 84.568299 22.8092784 84.568299"></polygon>
                <polygon id="Rectangle-path" points="91.2371134 87.9510309 95.0386598 87.9510309 95.0386598 91.3337629 91.2371134 91.3337629"></polygon>
                <polygon id="Rectangle-path" points="91.2371134 81.185567 95.0386598 81.185567 95.0386598 84.568299 91.2371134 84.568299"></polygon>
                <polygon id="Rectangle-path" points="114.046392 101.481959 117.847938 101.481959 117.847938 104.864691 114.046392 104.864691"></polygon>
            </g>
        </g>
    </g>
</svg>