<?xml version="1.0" encoding="UTF-8"?>
<svg width="118px" height="105px" viewBox="0 0 118 105" version="1.1" xmlns="http://www.w3.org/2000/svg" xmlns:xlink="http://www.w3.org/1999/xlink">
    <!-- Generator: Sketch 55.1 (78136) - https://sketchapp.com -->
    <title>pune</title>
    <desc>Created with Sketch.</desc>
    <g id="Website" stroke="none" stroke-width="1" fill="none" fill-rule="evenodd">
        <g id="template-copy" transform="translate(-1248.000000, -246.000000)" fill="#424242" fill-rule="nonzero">
            <g id="pune" transform="translate(1248.000000, 246.000000)">
                <path d="M112.290323,94.8387097 L112.290323,88.0645161 L108.483871,88.0645161 L108.483871,60.9677419 L112.290323,60.9677419 L112.290323,50.8064516 L93.2580645,50.8064516 L93.2580645,60.9677419 L97.0645161,60.9677419 L97.0645161,88.0645161 L93.2580645,88.0645161 L93.2580645,94.8387097 L68.516129,94.8387097 L68.516129,88.0645161 L64.7096774,88.0645161 L64.7096774,60.9677419 L68.516129,60.9677419 L68.516129,50.8064516 L49.483871,50.8064516 L49.483871,60.9677419 L53.2903226,60.9677419 L53.2903226,88.0645161 L49.483871,88.0645161 L49.483871,94.8387097 L24.7419355,94.8387097 L24.7419355,88.0645161 L20.9354839,88.0645161 L20.9354839,60.9677419 L24.7419355,60.9677419 L24.7419355,50.8064516 L5.70967742,50.8064516 L5.70967742,60.9677419 L9.51612903,60.9677419 L9.51612903,88.0645161 L5.70967742,88.0645161 L5.70967742,94.8387097 L0,94.8387097 L0,105 L118,105 L118,94.8387097 L112.290323,94.8387097 Z M97.0645161,54.1935484 L108.483871,54.1935484 L108.483871,57.5806452 L97.0645161,57.5806452 L97.0645161,54.1935484 Z M104.677419,60.9677419 L104.677419,88.0645161 L100.870968,88.0645161 L100.870968,60.9677419 L104.677419,60.9677419 Z M97.0645161,91.4516129 L108.483871,91.4516129 L108.483871,94.8387097 L97.0645161,94.8387097 L97.0645161,91.4516129 Z M53.2903226,54.1935484 L64.7096774,54.1935484 L64.7096774,57.5806452 L53.2903226,57.5806452 L53.2903226,54.1935484 Z M60.9032258,60.9677419 L60.9032258,88.0645161 L57.0967742,88.0645161 L57.0967742,60.9677419 L60.9032258,60.9677419 Z M53.2903226,91.4516129 L64.7096774,91.4516129 L64.7096774,94.8387097 L53.2903226,94.8387097 L53.2903226,91.4516129 Z M9.51612903,54.1935484 L20.9354839,54.1935484 L20.9354839,57.5806452 L9.51612903,57.5806452 L9.51612903,54.1935484 Z M17.1290323,60.9677419 L17.1290323,88.0645161 L13.3225806,88.0645161 L13.3225806,60.9677419 L17.1290323,60.9677419 Z M9.51612903,91.4516129 L20.9354839,91.4516129 L20.9354839,94.8387097 L9.51612903,94.8387097 L9.51612903,91.4516129 Z M114.193548,101.612903 L3.80645161,101.612903 L3.80645161,98.2258065 L114.193548,98.2258065 L114.193548,101.612903 Z" id="Shape"></path>
                <path d="M112.290323,45.7258065 C112.290323,27.9825 96.069129,13.5483871 76.1290323,13.5483871 L70.4193548,13.5483871 L70.4193548,10.1612903 C70.4193548,4.55733871 65.2977742,0 59,0 C52.7022258,0 47.5806452,4.55733871 47.5806452,10.1612903 L47.5806452,13.5483871 L41.8709677,13.5483871 C21.930871,13.5483871 5.70967742,27.9825 5.70967742,45.7258065 L5.70967742,47.4193548 L112.290323,47.4193548 L112.290323,45.7258065 Z M105.589065,33.8709677 L95.0566129,33.8709677 C94.5846129,28.0502419 91.7069355,22.6410484 86.9431613,18.6239516 C95.2355161,21.2523387 101.974839,26.7902419 105.589065,33.8709677 Z M80.4112903,20.2006452 L81.8387097,19.1404839 L83.266129,20.2006452 C87.9138065,23.6470161 90.7458065,28.56 91.2501613,33.8709677 L72.4272581,33.8709677 C72.9316129,28.56 75.7617097,23.6470161 80.4112903,20.2006452 Z M76.1290323,16.9354839 C77.0007097,16.9354839 77.8590645,16.9879839 78.7136129,17.0472581 L77.9732581,17.5959677 C74.5664839,20.1244355 72.0180645,23.3370968 70.4193548,26.9020161 C68.8206452,23.3370968 66.2722258,20.1244355 62.8654516,17.5976613 L61.9728387,16.9354839 L76.1290323,16.9354839 Z M68.4114516,33.8709677 L49.5885484,33.8709677 C50.0929032,28.56 52.923,23.6470161 57.5725806,20.2006452 L59,19.1404839 L60.4274194,20.2006452 C65.0750968,23.6470161 67.9070968,28.56 68.4114516,33.8709677 Z M51.3870968,10.1612903 C51.3870968,6.42532258 54.8014839,3.38709677 59,3.38709677 C63.1985161,3.38709677 66.6129032,6.42532258 66.6129032,10.1612903 L66.6129032,13.5483871 L51.3870968,13.5483871 L51.3870968,10.1612903 Z M41.8709677,16.9354839 L56.0271613,16.9354839 L55.1345484,17.5976613 C51.7277742,20.1244355 49.1793548,23.3370968 47.5806452,26.9020161 C45.9819355,23.3370968 43.4335161,20.1244355 40.0267419,17.5976613 L39.2863871,17.0489516 C40.1409355,16.9879839 40.9992903,16.9354839 41.8709677,16.9354839 Z M34.733871,20.2006452 L36.1612903,19.1404839 L37.5887097,20.2006452 C42.2363871,23.6470161 45.0683871,28.56 45.5727419,33.8709677 L26.7498387,33.8709677 C27.2541935,28.56 30.0842903,23.6470161 34.733871,20.2006452 Z M31.0568387,18.6239516 C26.2930645,22.6427419 23.4134839,28.0502419 22.9433871,33.8709677 L12.4109355,33.8709677 C16.0251613,26.7902419 22.7644839,21.2523387 31.0568387,18.6239516 Z M9.57132258,44.0322581 C9.65696774,42.7316129 9.87393548,41.4648387 10.148,40.215 L14.437871,44.0322581 L9.57132258,44.0322581 Z M12.2072903,37.2580645 L22.0507742,37.2580645 L17.1290323,41.6375806 L12.2072903,37.2580645 Z M19.8201935,44.0322581 L24.7419355,39.6527419 L29.6636774,44.0322581 L19.8201935,44.0322581 Z M27.4330968,37.2580645 L37.2765806,37.2580645 L32.3548387,41.6375806 L27.4330968,37.2580645 Z M35.046,44.0322581 L39.9677419,39.6527419 L44.8894839,44.0322581 L35.046,44.0322581 Z M42.6589032,37.2580645 L52.5023871,37.2580645 L47.5806452,41.6375806 L42.6589032,37.2580645 Z M50.2718065,44.0322581 L55.1935484,39.6527419 L60.1152903,44.0322581 L50.2718065,44.0322581 Z M57.8847097,37.2580645 L67.7281935,37.2580645 L62.8064516,41.6375806 L57.8847097,37.2580645 Z M65.4976129,44.0322581 L70.4193548,39.6527419 L75.3410968,44.0322581 L65.4976129,44.0322581 Z M73.1105161,37.2580645 L82.954,37.2580645 L78.0322581,41.6375806 L73.1105161,37.2580645 Z M80.7234194,44.0322581 L85.6451613,39.6527419 L90.5669032,44.0322581 L80.7234194,44.0322581 Z M88.3363226,37.2580645 L98.1798065,37.2580645 L93.2580645,41.6375806 L88.3363226,37.2580645 Z M95.9492258,44.0322581 L100.870968,39.6527419 L105.79271,44.0322581 L95.9492258,44.0322581 Z M103.562129,37.2580645 L107.016484,37.2580645 C107.471355,38.5705645 107.855806,39.9101613 108.097516,41.2937903 L103.562129,37.2580645 Z" id="Shape"></path>
            </g>
        </g>
    </g>
</svg>