<?xml version="1.0" encoding="UTF-8"?>
<svg width="82px" height="105px" viewBox="0 0 82 105" version="1.1" xmlns="http://www.w3.org/2000/svg" xmlns:xlink="http://www.w3.org/1999/xlink">
    <!-- Generator: Sketch 55.1 (78136) - https://sketchapp.com -->
    <title>ranchi</title>
    <desc>Created with Sketch.</desc>
    <g id="Website" stroke="none" stroke-width="1" fill="none" fill-rule="evenodd">
        <g id="template-copy" transform="translate(-514.000000, -246.000000)" fill="#424242" fill-rule="nonzero">
            <g id="ranchi" transform="translate(514.000000, 246.000000)">
                <path d="M79.5840259,91.0546875 L73.4553659,91.0546875 L73.4553659,85.5518262 C73.4553659,84.816416 73.0137436,84.1374023 72.2979473,83.7719531 C67.8164006,81.4845117 65.0323398,77.2033008 65.0323398,72.5990918 L65.0323398,63.8894238 C65.0323398,56.6643164 61.0266872,49.9318066 54.3170177,45.8802832 C53.9363485,45.6503906 53.4871358,45.5273438 53.0273425,45.5273438 L51.5226064,45.5273438 L51.5226064,42.2460938 L52.2126413,42.2460938 C53.4827655,42.2460938 54.5127576,41.3277539 54.5127576,40.1953125 C54.5127576,39.0628711 53.4827655,38.1445313 52.2126413,38.1445313 L51.5614783,38.1445313 L43.2251666,1.64165039 C43.0071156,0.686396484 42.0647579,0 40.9712826,0 C39.8778073,0 38.9354496,0.686396484 38.7173986,1.64165039 L30.3810869,38.1445312 L29.671501,38.1445312 C28.4013767,38.1445312 27.3713846,39.0628711 27.3713846,40.1953125 C27.3713846,41.3277539 28.4013767,42.2460938 29.671501,42.2460938 L30.3615359,42.2460938 L30.3615359,45.5273438 L28.8567998,45.5273438 C28.3970065,45.5273438 27.9477938,45.6503906 27.5671245,45.8800781 C23.8738277,48.1100977 20.9381892,51.1993945 19.076705,54.8141016 C18.5465282,55.8435937 19.0527838,57.0609375 20.2072122,57.5336426 C21.3618706,58.0065527 22.7272197,57.5549707 23.2573965,56.5256836 C24.6717381,53.778457 26.8515583,51.405293 29.5838666,49.6289062 L52.3007357,49.6289062 C57.405384,52.9464551 60.4325671,58.2317285 60.4325671,63.8894238 L60.4325671,72.5990918 C60.4325671,76.6225195 62.0463287,80.4578906 64.8538508,83.4659766 L50.6322313,83.4659766 L50.6322313,71.0111719 C50.6322313,68.1983203 48.944406,65.5632715 46.2279685,64.134082 L45.4144174,63.7056738 C44.0930005,63.0102539 43.272089,61.7285156 43.272089,60.3604395 C43.272089,59.227998 42.2420969,58.3096582 40.9719727,58.3096582 C39.7018484,58.3096582 38.6718563,59.227998 38.6718563,60.3604395 C38.6718563,61.7285156 37.8509448,63.0102539 36.5295279,63.7058789 L35.7162068,64.133877 C32.9993093,65.5632715 31.311714,68.1983203 31.311714,71.0111719 L31.311714,83.4659766 L17.0316716,83.4659766 C19.8391936,80.4578906 21.4529552,76.6225195 21.4529552,72.5990918 C21.4529552,71.4666504 20.4229631,70.5483105 19.1528389,70.5483105 C17.8827146,70.5483105 16.8527225,71.4666504 16.8527225,72.5990918 C16.8527225,77.2033008 14.0686617,81.4845117 9.58711499,83.7719531 C8.87131877,84.1371973 8.42969643,84.816416 8.42969643,85.5518262 L8.42969643,91.0546875 L2.30011636,91.0546875 C1.0299921,91.0546875 0,91.9730273 0,93.1054688 L0,102.949219 C0,104.08166 1.0299921,105 2.30011636,105 L57.5795028,105 C58.849627,105 59.8796191,104.08166 59.8796191,102.949219 C59.8796191,101.816777 58.849627,100.898438 57.5795028,100.898438 L50.6025598,100.898438 L50.6025598,95.15625 L77.2839096,95.15625 L77.2839096,100.898438 L75.3672226,100.898438 C74.0970984,100.898438 73.0671063,101.816777 73.0671063,102.949219 C73.0671063,104.08166 74.0970984,105 75.3672226,105 L79.5840259,105 C80.8541502,105 81.8841423,104.08166 81.8841423,102.949219 L81.8841423,93.1054688 C81.8841423,91.9730273 80.8541502,91.0546875 79.5840259,91.0546875 Z M40.9712826,12.3290918 L43.1200513,21.7382812 L38.8222839,21.7382812 L40.9712826,12.3290918 Z M37.8859065,25.8398437 L44.0568887,25.8398437 L44.9934961,29.9414063 L36.9490691,29.9414063 L37.8859065,25.8398437 Z M36.0122318,34.0429688 L45.9301035,34.0429688 L46.8667109,38.1445312 L35.0753944,38.1445312 L36.0122318,34.0429688 Z M46.9223737,45.5273437 L34.9617686,45.5273437 L34.9617686,42.2460937 L46.9223737,42.2460937 L46.9223737,45.5273437 Z M31.2815824,100.898437 L4.60023271,100.898437 L4.60023271,95.15625 L31.2815824,95.15625 L31.2815824,100.898437 Z M31.2815824,91.0546875 L13.0290091,91.0546875 L13.0290091,87.5675391 L31.2815824,87.5675391 L31.2815824,91.0546875 Z M46.0023271,100.898437 L35.8818152,100.898437 L35.8818152,95.15625 L46.0023271,95.15625 L46.0023271,100.898437 Z M46.0023271,91.0546875 L35.8818152,91.0546875 L35.8818152,87.5675391 L46.0023271,87.5675391 L46.0023271,91.0546875 Z M46.0310786,83.4659766 L35.9105666,83.4659766 L35.9105666,71.0111719 L35.9110266,71.0111719 C35.9110266,69.6430957 36.7317082,68.3613574 38.053355,67.6659375 L38.8669062,67.2379395 C39.6618264,66.8195801 40.3688821,66.2978613 40.9710526,65.698623 C41.5732231,66.2978613 42.2800488,66.819375 43.0751991,67.2377344 L43.8889802,67.6661426 C45.2103971,68.3613574 46.0310786,69.6430957 46.0310786,71.0111719 L46.0310786,83.4659766 L46.0310786,83.4659766 Z M68.8551332,91.0546875 L50.6025598,91.0546875 L50.6025598,87.5675391 L68.8551332,87.5675391 L68.8551332,91.0546875 Z" id="Shape"></path>
                <path d="M67.9452072,101.499316 C67.5176155,101.117666 66.9264856,100.898438 66.3192549,100.898438 C65.7143243,100.898438 65.1208943,101.117666 64.6930726,101.499316 C64.265251,101.880967 64.0191385,102.409863 64.0191385,102.949219 C64.0191385,103.488574 64.265021,104.017676 64.6930726,104.398916 C65.1208943,104.780361 65.7143243,105 66.3192549,105 C66.9264856,105 67.5176155,104.780566 67.9452072,104.398916 C68.3730288,104.017676 68.6193713,103.488574 68.6193713,102.949219 C68.6193713,102.409863 68.3732588,101.880762 67.9452072,101.499316 Z" id="Shape"></path>
                <path d="M20.776951,62.4401367 C20.3491294,62.0566406 19.7577695,61.8392578 19.1507688,61.8392578 C18.5458382,61.8392578 17.9547083,62.0566406 17.5245865,62.4401367 C17.0969949,62.821582 16.8506524,63.3486328 16.8506524,63.8900391 C16.8506524,64.4293945 17.0967649,64.9584961 17.5245865,65.3397363 C17.9547083,65.7213867 18.5458382,65.9408203 19.1507688,65.9408203 C19.7579995,65.9408203 20.3491294,65.7213867 20.776951,65.3397363 C21.2070728,64.9584961 21.4529552,64.4293945 21.4529552,63.8900391 C21.4529552,63.3506836 21.2070728,62.821582 20.776951,62.4401367 Z" id="Shape"></path>
            </g>
        </g>
    </g>
</svg>