<?xml version="1.0" encoding="UTF-8"?>
<svg width="247px" height="32px" viewBox="0 0 247 32" version="1.1" xmlns="http://www.w3.org/2000/svg" xmlns:xlink="http://www.w3.org/1999/xlink">
    <!-- Generator: Sketch 55.1 (78136) - https://sketchapp.com -->
    <title>SarabpreetSingh</title>
    <desc>Created with Sketch.</desc>
    <defs>
        <linearGradient x1="129.632389%" y1="48.2178021%" x2="0%" y2="50.7514875%" id="linearGradient-1">
            <stop stop-color="#E9E9E9" offset="0%"></stop>
            <stop stop-color="#FFFFFF" offset="100%"></stop>
        </linearGradient>
        <path d="M956.641,61.31 C954.966992,61.31 953.349841,61.0723357 951.7895,60.597 C950.229159,60.1216643 948.994338,59.4913373 948.085,58.706 L949.48,55.575 C950.368671,56.2776702 951.458827,56.8511644 952.7505,57.2955 C954.042173,57.7398356 955.338993,57.962 956.641,57.962 C958.253008,57.962 959.456829,57.7036692 960.2525,57.187 C961.048171,56.6703307 961.446,55.9883376 961.446,55.141 C961.446,54.5209969 961.223836,54.009502 960.7795,53.6065 C960.335164,53.203498 959.772003,52.8883345 959.09,52.661 C958.407997,52.4336655 957.478006,52.1753348 956.3,51.886 C954.646658,51.4933314 953.308505,51.1006686 952.2855,50.708 C951.262495,50.3153314 950.38417,49.7005042 949.6505,48.8635 C948.91683,48.0264958 948.55,46.8950071 948.55,45.469 C948.55,44.2703273 948.875497,43.1801716 949.5265,42.1985 C950.177503,41.2168284 951.15916,40.4366696 952.4715,39.858 C953.78384,39.2793304 955.390657,38.99 957.292,38.99 C958.614673,38.99 959.91666,39.1553317 961.198,39.486 C962.47934,39.8166683 963.585,40.2919969 964.515,40.912 L963.244,44.043 C962.293329,43.4849972 961.301339,43.0613348 960.268,42.772 C959.234662,42.4826652 958.232338,42.338 957.261,42.338 C955.669659,42.338 954.486504,42.606664 953.7115,43.144 C952.936496,43.681336 952.549,44.3943289 952.549,45.283 C952.549,45.9030031 952.771164,46.4093314 953.2155,46.802 C953.659836,47.1946686 954.222997,47.5046655 954.905,47.732 C955.587003,47.9593345 956.516994,48.2176652 957.695,48.507 C959.307008,48.8790019 960.629661,49.266498 961.663,49.6695 C962.696339,50.072502 963.57983,50.6873292 964.3135,51.514 C965.04717,52.3406708 965.414,53.4566596 965.414,54.862 C965.414,56.0606727 965.088503,57.1456618 964.4375,58.117 C963.786497,59.0883382 962.799673,59.8633304 961.477,60.442 C960.154327,61.0206696 958.542343,61.31 956.641,61.31 Z M973.465,44.26 C975.903679,44.26 977.768827,44.8438275 979.0605,46.0115 C980.352173,47.1791725 980.998,48.9409882 980.998,51.297 L980.998,61 L977.34,61 L977.34,58.985 C976.864664,59.708337 976.187838,60.2611648 975.3095,60.6435 C974.431162,61.0258352 973.372006,61.217 972.132,61.217 C970.891994,61.217 969.807005,61.0051688 968.877,60.5815 C967.946995,60.1578312 967.228836,59.5688371 966.7225,58.8145 C966.216164,58.0601629 965.963,57.2076714 965.963,56.257 C965.963,54.7689926 966.515828,53.5755045 967.6215,52.6765 C968.727172,51.7774955 970.468321,51.328 972.845,51.328 L977.123,51.328 L977.123,51.08 C977.123,49.9226609 976.776837,49.0340031 976.0845,48.414 C975.392163,47.7939969 974.364007,47.484 973,47.484 C972.069995,47.484 971.155504,47.6286652 970.2565,47.918 C969.357496,48.2073348 968.598003,48.6103308 967.978,49.127 L966.459,46.306 C967.327004,45.6446634 968.370661,45.1383351 969.59,44.787 C970.809339,44.4356649 972.100993,44.26 973.465,44.26 Z M972.938,58.396 C973.909338,58.396 974.772163,58.1738356 975.5265,57.7295 C976.280837,57.2851644 976.812998,56.6496708 977.123,55.823 L977.123,53.901 L973.124,53.901 C970.891989,53.901 969.776,54.6346593 969.776,56.102 C969.776,56.8046702 970.054997,57.3626646 970.613,57.776 C971.171003,58.1893354 971.945995,58.396 972.938,58.396 Z M987.747,46.864 C988.863006,45.1279913 990.826319,44.26 993.637,44.26 L993.637,47.949 C993.306332,47.8869997 993.006668,47.856 992.738,47.856 C991.229326,47.856 990.051338,48.2951623 989.204,49.1735 C988.356662,50.0518377 987.933,51.3176584 987.933,52.971 L987.933,61 L984.058,61 L984.058,44.446 L987.747,44.446 L987.747,46.864 Z M1001.254,44.26 C1003.69268,44.26 1005.55783,44.8438275 1006.8495,46.0115 C1008.14117,47.1791725 1008.787,48.9409882 1008.787,51.297 L1008.787,61 L1005.129,61 L1005.129,58.985 C1004.65366,59.708337 1003.97684,60.2611648 1003.0985,60.6435 C1002.22016,61.0258352 1001.16101,61.217 999.921,61.217 C998.680994,61.217 997.596005,61.0051688 996.666,60.5815 C995.735995,60.1578312 995.017836,59.5688371 994.5115,58.8145 C994.005164,58.0601629 993.752,57.2076714 993.752,56.257 C993.752,54.7689926 994.304828,53.5755045 995.4105,52.6765 C996.516172,51.7774955 998.257321,51.328 1000.634,51.328 L1004.912,51.328 L1004.912,51.08 C1004.912,49.9226609 1004.56584,49.0340031 1003.8735,48.414 C1003.18116,47.7939969 1002.15301,47.484 1000.789,47.484 C999.858995,47.484 998.944504,47.6286652 998.0455,47.918 C997.146496,48.2073348 996.387003,48.6103308 995.767,49.127 L994.248,46.306 C995.116004,45.6446634 996.159661,45.1383351 997.379,44.787 C998.598339,44.4356649 999.889993,44.26 1001.254,44.26 Z M1000.727,58.396 C1001.69834,58.396 1002.56116,58.1738356 1003.3155,57.7295 C1004.06984,57.2851644 1004.602,56.6496708 1004.912,55.823 L1004.912,53.901 L1000.913,53.901 C998.680989,53.901 997.565,54.6346593 997.565,56.102 C997.565,56.8046702 997.843997,57.3626646 998.402,57.776 C998.960003,58.1893354 999.734995,58.396 1000.727,58.396 Z M1021.023,44.26 C1022.63501,44.26 1024.07649,44.6113298 1025.3475,45.314 C1026.61851,46.0166702 1027.61566,47.0086603 1028.339,48.29 C1029.06234,49.5713397 1029.424,51.0489916 1029.424,52.723 C1029.424,54.3970084 1029.06234,55.8798269 1028.339,57.1715 C1027.61566,58.4631731 1026.61851,59.4603298 1025.3475,60.163 C1024.07649,60.8656702 1022.63501,61.217 1021.023,61.217 C1019.88633,61.217 1018.84784,61.0206686 1017.9075,60.628 C1016.96716,60.2353314 1016.17667,59.6463373 1015.536,58.861 L1015.536,61 L1011.847,61 L1011.847,37.998 L1015.722,37.998 L1015.722,46.461 C1016.38334,45.737663 1017.1635,45.1900019 1018.0625,44.818 C1018.9615,44.4459981 1019.94833,44.26 1021.023,44.26 Z M1020.589,57.9 C1022.01501,57.9 1023.18783,57.4246714 1024.1075,56.474 C1025.02717,55.5233286 1025.487,54.2730078 1025.487,52.723 C1025.487,51.1729923 1025.02717,49.9226714 1024.1075,48.972 C1023.18783,48.0213286 1022.01501,47.546 1020.589,47.546 C1019.659,47.546 1018.822,47.7578312 1018.078,48.1815 C1017.334,48.6051688 1016.745,49.2096627 1016.311,49.995 C1015.877,50.7803373 1015.66,51.6896615 1015.66,52.723 C1015.66,53.7563385 1015.877,54.6656627 1016.311,55.451 C1016.745,56.2363373 1017.334,56.8408312 1018.078,57.2645 C1018.822,57.6881688 1019.659,57.9 1020.589,57.9 Z M1040.389,44.26 C1042.00101,44.26 1043.44249,44.6113298 1044.7135,45.314 C1045.98451,46.0166702 1046.98166,47.0086603 1047.705,48.29 C1048.42834,49.5713397 1048.79,51.0489916 1048.79,52.723 C1048.79,54.3970084 1048.42834,55.8798269 1047.705,57.1715 C1046.98166,58.4631731 1045.98451,59.4603298 1044.7135,60.163 C1043.44249,60.8656702 1042.00101,61.217 1040.389,61.217 C1038.15699,61.217 1036.39001,60.4730074 1035.088,58.985 L1035.088,67.014 L1031.213,67.014 L1031.213,44.446 L1034.902,44.446 L1034.902,46.616 C1035.54267,45.8306627 1036.33316,45.2416686 1037.2735,44.849 C1038.21384,44.4563314 1039.25233,44.26 1040.389,44.26 Z M1039.955,57.9 C1041.38101,57.9 1042.55383,57.4246714 1043.4735,56.474 C1044.39317,55.5233286 1044.853,54.2730078 1044.853,52.723 C1044.853,51.1729923 1044.39317,49.9226714 1043.4735,48.972 C1042.55383,48.0213286 1041.38101,47.546 1039.955,47.546 C1039.025,47.546 1038.188,47.7578312 1037.444,48.1815 C1036.7,48.6051688 1036.111,49.2096627 1035.677,49.995 C1035.243,50.7803373 1035.026,51.6896615 1035.026,52.723 C1035.026,53.7563385 1035.243,54.6656627 1035.677,55.451 C1036.111,56.2363373 1036.7,56.8408312 1037.444,57.2645 C1038.188,57.6881688 1039.025,57.9 1039.955,57.9 Z M1054.268,46.864 C1055.38401,45.1279913 1057.34732,44.26 1060.158,44.26 L1060.158,47.949 C1059.82733,47.8869997 1059.52767,47.856 1059.259,47.856 C1057.75033,47.856 1056.57234,48.2951623 1055.725,49.1735 C1054.87766,50.0518377 1054.454,51.3176584 1054.454,52.971 L1054.454,61 L1050.579,61 L1050.579,44.446 L1054.268,44.446 L1054.268,46.864 Z M1076.951,52.816 C1076.951,53.084668 1076.93033,53.4669975 1076.889,53.963 L1063.9,53.963 C1064.12733,55.1823394 1064.7215,56.1484964 1065.6825,56.8615 C1066.6435,57.5745036 1067.83699,57.931 1069.263,57.931 C1071.08168,57.931 1072.57999,57.3316727 1073.758,56.133 L1075.835,58.52 C1075.091,59.4086711 1074.15067,60.0803311 1073.014,60.535 C1071.87733,60.9896689 1070.59601,61.217 1069.17,61.217 C1067.35132,61.217 1065.74967,60.855337 1064.365,60.132 C1062.98033,59.4086631 1061.91084,58.4011731 1061.1565,57.1095 C1060.40216,55.8178269 1060.025,54.3556748 1060.025,52.723 C1060.025,51.1109919 1060.39183,49.6591731 1061.1255,48.3675 C1061.85917,47.0758269 1062.87699,46.068337 1064.179,45.345 C1065.48101,44.6216631 1066.94833,44.26 1068.581,44.26 C1070.19301,44.26 1071.63449,44.6164964 1072.9055,45.3295 C1074.17651,46.0425036 1075.1685,47.0448269 1075.8815,48.3365 C1076.5945,49.6281731 1076.951,51.1213249 1076.951,52.816 Z M1068.581,47.36 C1067.34099,47.36 1066.29217,47.7268297 1065.4345,48.4605 C1064.57683,49.1941703 1064.055,50.1706606 1063.869,51.39 L1073.262,51.39 C1073.09667,50.1913273 1072.59034,49.2200037 1071.743,48.476 C1070.89566,47.7319963 1069.84167,47.36 1068.581,47.36 Z M1094.333,52.816 C1094.333,53.084668 1094.31233,53.4669975 1094.271,53.963 L1081.282,53.963 C1081.50933,55.1823394 1082.1035,56.1484964 1083.0645,56.8615 C1084.0255,57.5745036 1085.21899,57.931 1086.645,57.931 C1088.46368,57.931 1089.96199,57.3316727 1091.14,56.133 L1093.217,58.52 C1092.473,59.4086711 1091.53267,60.0803311 1090.396,60.535 C1089.25933,60.9896689 1087.97801,61.217 1086.552,61.217 C1084.73332,61.217 1083.13167,60.855337 1081.747,60.132 C1080.36233,59.4086631 1079.29284,58.4011731 1078.5385,57.1095 C1077.78416,55.8178269 1077.407,54.3556748 1077.407,52.723 C1077.407,51.1109919 1077.77383,49.6591731 1078.5075,48.3675 C1079.24117,47.0758269 1080.25899,46.068337 1081.561,45.345 C1082.86301,44.6216631 1084.33033,44.26 1085.963,44.26 C1087.57501,44.26 1089.01649,44.6164964 1090.2875,45.3295 C1091.55851,46.0425036 1092.5505,47.0448269 1093.2635,48.3365 C1093.9765,49.6281731 1094.333,51.1213249 1094.333,52.816 Z M1085.963,47.36 C1084.72299,47.36 1083.67417,47.7268297 1082.8165,48.4605 C1081.95883,49.1941703 1081.437,50.1706606 1081.251,51.39 L1090.644,51.39 C1090.47867,50.1913273 1089.97234,49.2200037 1089.125,48.476 C1088.27766,47.7319963 1087.22367,47.36 1085.963,47.36 Z M1106.104,60.101 C1105.64933,60.4730019 1105.0965,60.7519991 1104.4455,60.938 C1103.7945,61.1240009 1103.10734,61.217 1102.384,61.217 C1100.56532,61.217 1099.16,60.7416714 1098.168,59.791 C1097.176,58.8403286 1096.68,57.4556758 1096.68,55.637 L1096.68,47.67 L1093.952,47.67 L1093.952,44.57 L1096.68,44.57 L1096.68,40.788 L1100.555,40.788 L1100.555,44.57 L1104.988,44.57 L1104.988,47.67 L1100.555,47.67 L1100.555,55.544 C1100.555,56.350004 1100.75133,56.9648312 1101.144,57.3885 C1101.53667,57.8121688 1102.105,58.024 1102.849,58.024 C1103.717,58.024 1104.44033,57.7966689 1105.019,57.342 L1106.104,60.101 Z M1121.152,61.31 C1119.47799,61.31 1117.86084,61.0723357 1116.3005,60.597 C1114.74016,60.1216643 1113.50534,59.4913373 1112.596,58.706 L1113.991,55.575 C1114.87967,56.2776702 1115.96983,56.8511644 1117.2615,57.2955 C1118.55317,57.7398356 1119.84999,57.962 1121.152,57.962 C1122.76401,57.962 1123.96783,57.7036692 1124.7635,57.187 C1125.55917,56.6703307 1125.957,55.9883376 1125.957,55.141 C1125.957,54.5209969 1125.73484,54.009502 1125.2905,53.6065 C1124.84616,53.203498 1124.283,52.8883345 1123.601,52.661 C1122.919,52.4336655 1121.98901,52.1753348 1120.811,51.886 C1119.15766,51.4933314 1117.81951,51.1006686 1116.7965,50.708 C1115.77349,50.3153314 1114.89517,49.7005042 1114.1615,48.8635 C1113.42783,48.0264958 1113.061,46.8950071 1113.061,45.469 C1113.061,44.2703273 1113.3865,43.1801716 1114.0375,42.1985 C1114.6885,41.2168284 1115.67016,40.4366696 1116.9825,39.858 C1118.29484,39.2793304 1119.90166,38.99 1121.803,38.99 C1123.12567,38.99 1124.42766,39.1553317 1125.709,39.486 C1126.99034,39.8166683 1128.096,40.2919969 1129.026,40.912 L1127.755,44.043 C1126.80433,43.4849972 1125.81234,43.0613348 1124.779,42.772 C1123.74566,42.4826652 1122.74334,42.338 1121.772,42.338 C1120.18066,42.338 1118.9975,42.606664 1118.2225,43.144 C1117.4475,43.681336 1117.06,44.3943289 1117.06,45.283 C1117.06,45.9030031 1117.28216,46.4093314 1117.7265,46.802 C1118.17084,47.1946686 1118.734,47.5046655 1119.416,47.732 C1120.098,47.9593345 1121.02799,48.2176652 1122.206,48.507 C1123.81801,48.8790019 1125.14066,49.266498 1126.174,49.6695 C1127.20734,50.072502 1128.09083,50.6873292 1128.8245,51.514 C1129.55817,52.3406708 1129.925,53.4566596 1129.925,54.862 C1129.925,56.0606727 1129.5995,57.1456618 1128.9485,58.117 C1128.2975,59.0883382 1127.31067,59.8633304 1125.988,60.442 C1124.66533,61.0206696 1123.05334,61.31 1121.152,61.31 Z M1131.652,44.446 L1135.527,44.446 L1135.527,61 L1131.652,61 L1131.652,44.446 Z M1133.605,41.718 C1132.90233,41.718 1132.31334,41.4958356 1131.838,41.0515 C1131.36266,40.6071644 1131.125,40.0543366 1131.125,39.393 C1131.125,38.7316634 1131.36266,38.1788356 1131.838,37.7345 C1132.31334,37.2901644 1132.90233,37.068 1133.605,37.068 C1134.30767,37.068 1134.89666,37.2798312 1135.372,37.7035 C1135.84734,38.1271688 1136.085,38.6593301 1136.085,39.3 C1136.085,39.9820034 1135.8525,40.5554977 1135.3875,41.0205 C1134.9225,41.4855023 1134.32834,41.718 1133.605,41.718 Z M1148.104,44.26 C1150.19134,44.26 1151.86533,44.8696606 1153.126,46.089 C1154.38667,47.3083394 1155.017,49.1166547 1155.017,51.514 L1155.017,61 L1151.142,61 L1151.142,52.01 C1151.142,50.5633261 1150.801,49.4731703 1150.119,48.7395 C1149.437,48.0058297 1148.46567,47.639 1147.205,47.639 C1145.77899,47.639 1144.65267,48.067829 1143.826,48.9255 C1142.99933,49.783171 1142.586,51.0179919 1142.586,52.63 L1142.586,61 L1138.711,61 L1138.711,44.446 L1142.4,44.446 L1142.4,46.585 C1143.04067,45.8203295 1143.84666,45.2416686 1144.818,44.849 C1145.78934,44.4563314 1146.88466,44.26 1148.104,44.26 Z M1174.631,44.446 L1174.631,58.489 C1174.631,64.3170291 1171.65503,67.231 1165.703,67.231 C1164.11166,67.231 1162.60301,67.029502 1161.177,66.6265 C1159.75099,66.223498 1158.573,65.6396705 1157.643,64.875 L1159.379,61.961 C1160.10234,62.5603363 1161.01683,63.0408315 1162.1225,63.4025 C1163.22817,63.7641685 1164.34933,63.945 1165.486,63.945 C1167.30468,63.945 1168.63766,63.5316708 1169.485,62.705 C1170.33234,61.8783292 1170.756,60.6176751 1170.756,58.923 L1170.756,58.055 C1170.09466,58.7783369 1169.28867,59.3259981 1168.338,59.698 C1167.38733,60.0700019 1166.34367,60.256 1165.207,60.256 C1163.63633,60.256 1162.21551,59.92017 1160.9445,59.2485 C1159.67349,58.57683 1158.67117,57.6313394 1157.9375,56.412 C1157.20383,55.1926606 1156.837,53.7976745 1156.837,52.227 C1156.837,50.6563255 1157.20383,49.266506 1157.9375,48.0575 C1158.67117,46.848494 1159.67349,45.9133366 1160.9445,45.252 C1162.21551,44.5906634 1163.63633,44.26 1165.207,44.26 C1166.40567,44.26 1167.49583,44.4563314 1168.4775,44.849 C1169.45917,45.2416686 1170.28066,45.840996 1170.942,46.647 L1170.942,44.446 L1174.631,44.446 Z M1165.796,56.97 C1167.26334,56.97 1168.46716,56.5308377 1169.4075,55.6525 C1170.34784,54.7741623 1170.818,53.6323404 1170.818,52.227 C1170.818,50.8423264 1170.34784,49.7160043 1169.4075,48.848 C1168.46716,47.9799957 1167.26334,47.546 1165.796,47.546 C1164.30799,47.546 1163.09384,47.9799957 1162.1535,48.848 C1161.21316,49.7160043 1160.743,50.8423264 1160.743,52.227 C1160.743,53.6323404 1161.21316,54.7741623 1162.1535,55.6525 C1163.09384,56.5308377 1164.30799,56.97 1165.796,56.97 Z M1187.208,44.26 C1189.29534,44.26 1190.96933,44.8696606 1192.23,46.089 C1193.49067,47.3083394 1194.121,49.1166547 1194.121,51.514 L1194.121,61 L1190.246,61 L1190.246,52.01 C1190.246,50.5633261 1189.905,49.4731703 1189.223,48.7395 C1188.541,48.0058297 1187.56967,47.639 1186.309,47.639 C1184.88299,47.639 1183.75667,48.067829 1182.93,48.9255 C1182.10333,49.783171 1181.69,51.0179919 1181.69,52.63 L1181.69,61 L1177.815,61 L1177.815,37.998 L1181.69,37.998 L1181.69,46.368 C1182.33067,45.6859966 1183.12116,45.1641685 1184.0615,44.8025 C1185.00184,44.4408315 1186.05066,44.26 1187.208,44.26 Z" id="path-2"></path>
        <filter x="-0.2%" y="-5.0%" width="100.4%" height="106.6%" filterUnits="objectBoundingBox" id="filter-3">
            <feOffset dx="0" dy="-1" in="SourceAlpha" result="shadowOffsetOuter1"></feOffset>
            <feColorMatrix values="0 0 0 0 0   0 0 0 0 0   0 0 0 0 0  0 0 0 0.5 0" type="matrix" in="shadowOffsetOuter1"></feColorMatrix>
        </filter>
    </defs>
    <g id="web-design" stroke="none" stroke-width="1" fill="none" fill-rule="evenodd">
        <g id="Desktop-HD" transform="translate(-948.000000, -36.000000)" fill-rule="nonzero">
            <g id="SarabpreetSingh">
                <use fill="black" fill-opacity="1" filter="url(#filter-3)" xlink:href="#path-2"></use>
                <use fill="url(#linearGradient-1)" xlink:href="#path-2"></use>
            </g>
        </g>
    </g>
</svg>